Coordinates
version=1
nRows=9
nColumns=36
inDegrees=yes

Units are S.I. units (second, meters, Newtons, ...)
If the header above contains a line with 'inDegrees', this indicates whether rotational values are in degrees (yes) or radians (no).

endheader
time	pelvis_tilt	pelvis_list	pelvis_rotation	pelvis_tx	pelvis_ty	pelvis_tz	hip_flexion_r	hip_adduction_r	hip_rotation_r	knee_angle_r	knee_angle_r_beta	ankle_angle_r	subtalar_angle_r	mtp_angle_r	hip_flexion_l	hip_adduction_l	hip_rotation_l	knee_angle_l	knee_angle_l_beta	ankle_angle_l	subtalar_angle_l	mtp_angle_l	lumbar_extension	lumbar_bending	lumbar_rotation	arm_flex_r	arm_add_r	arm_rot_r	elbow_flex_r	pro_sup_r	arm_flex_l	arm_add_l	arm_rot_l	elbow_flex_l	pro_sup_l
      2.85833330	    -14.12612973	      2.21514073	      1.47646027	      0.42476089	      1.45139282	     -0.04564007	      8.46132367	    -10.96916400	    -22.17164030	      4.69660036	      0.08197114	    -32.10870291	      0.26958304	     -7.49999987	     10.23286288	     -8.19492012	    -22.05855966	      8.19416017	      0.14301507	    -27.29736272	     -5.26145139	     -7.49999987	      4.09101048	     -0.98697884	     -0.18069109	    139.32474187	    -20.59280567	     44.16274386	     70.09348373	     85.64570374	    147.11981054	    -27.13924695	     55.85203375	     77.23893066	     81.98849353
      2.86250000	    -14.08713752	      2.27370189	      1.46908479	      0.42488487	      1.45693616	     -0.04698802	      8.43757624	    -11.08484971	    -21.92501224	      4.53016920	      0.07906637	    -32.05306686	      0.49582845	     -7.49999987	     10.27025157	     -8.03856980	    -21.38229810	      8.16246649	      0.14246192	    -27.30750703	     -4.80668418	     -7.49999987	      4.00044946	     -1.01468809	     -0.08970476	    139.32081733	    -20.59139142	     44.21384794	     70.17024496	     85.64411258	    147.06445837	    -27.19430496	     55.86752028	     77.30534983	     81.98969443
      2.86666670	    -13.84003070	      2.25238962	      1.41461205	      0.42550292	      1.45934171	     -0.04616776	      8.07167108	    -11.02286748	    -22.29121150	      4.27818987	      0.07466850	    -31.86085170	      1.24790472	     -7.49999987	      9.96761348	     -7.94175442	    -20.97978629	      7.94617102	      0.13868685	    -26.81908541	     -3.70126350	     -7.49999987	      3.71057122	     -0.95235269	     -0.06332188	    139.28406422	    -20.81093627	     44.58676922	     70.83746660	     84.17848279	    146.74960255	    -27.29129299	     55.64530045	     77.98182495	     80.70823709
      2.87083330	    -13.78222957	      2.24523848	      1.38035033	      0.42684440	      1.45879099	     -0.04780723	      7.99980444	    -11.14071613	    -21.98377715	      4.14295614	      0.07230823	    -32.30270274	      1.41571895	     -7.49999987	      9.90946144	     -7.81241055	    -20.44311166	      7.83795439	      0.13679811	    -26.33499541	     -3.18966878	     -7.49999987	      3.85916297	     -0.90522955	     -0.00495344	    138.89379162	    -20.96443544	     44.65302003	     71.22778994	     82.84463477	    146.29761102	    -27.30492340	     55.65529073	     78.22125968	     79.53177380
      2.87500000	    -13.68720408	      2.32844424	      1.29244638	      0.42722353	      1.46022919	     -0.04872823	      7.93390312	    -11.32943956	    -21.62800516	      4.11893747	      0.07188902	    -32.67256340	      1.77040181	     -7.49999987	      9.74856513	     -7.57724804	    -19.79877784	      7.62298273	      0.13304615	    -26.20384127	     -2.61264562	     -7.49999987	      3.82719974	     -0.91587855	      0.01483299	    138.68148905	    -20.84898908	     44.09034953	     71.28218517	     86.78910372	    146.18361595	    -27.34859667	     55.40596280	     78.37238394	     83.23345869
      2.87916670	    -13.66434834	      2.24223296	      1.26460186	      0.42569752	      1.45922338	     -0.04832278	      8.05344557	    -11.34287170	    -21.30044777	      4.18737310	      0.07308345	    -33.03225557	      1.86479295	     -7.49999987	      9.82445550	     -7.54472506	    -19.39847880	      7.53100001	      0.13144075	    -25.86841955	     -2.10338099	     -7.49999987	      3.80967791	     -0.79657330	      0.04395248	    138.69280660	    -20.84229777	     44.11545194	     71.37334691	     85.85161711	    146.07358989	    -27.12674243	     55.42634331	     78.38918317	     82.38843321
      2.88333330	    -13.54695572	      2.22039203	      1.28747395	      0.42607508	      1.45985679	     -0.04845335	      8.05896259	    -11.46222128	    -21.03190241	      4.20239132	      0.07334556	    -33.08780069	      2.17108640	     -7.49999987	      9.82979383	     -7.55710175	    -18.76523828	      7.53238953	      0.13146500	    -25.45591969	     -1.58200053	     -7.49999987	      3.56255648	     -0.77990484	      0.14277500	    138.99385430	    -20.90044026	     44.28889694	     71.37624104	     84.25753293	    146.27088313	    -26.77170278	     55.39812528	     78.16801716	     80.87792918
      2.88750000	    -13.48029341	      2.10256499	      1.28128417	      0.42682336	      1.46022613	     -0.04883921	      8.13020138	    -11.44088726	    -20.33971350	      4.28949224	      0.07486576	    -33.21486101	      2.27586865	     -7.49999987	      9.85544119	     -7.70290527	    -18.12026103	      7.49475454	      0.13080814	    -24.85217999	     -0.92339867	     -7.49999987	      3.44457180	     -0.58249090	      0.13083497	    139.43995795	    -20.88878310	     44.86218502	     71.24376409	     83.36259465	    146.44107241	    -26.82368634	     55.88069173	     78.21835839	     80.06089847
      2.89166670	    -13.60815366	      1.90784258	      1.39000714	      0.42681841	      1.46144164	     -0.04889014	      8.38308035	    -11.37688957	    -19.58607477	      4.49083213	      0.07837981	    -33.46816774	      2.44104552	     -7.49999987	     10.09629753	     -7.82219023	    -17.52528361	      7.48198799	      0.13058533	    -24.64039089	     -0.48446194	     -7.49999987	      3.66716298	     -0.33246820	      0.06781750	    139.31544972	    -20.89965895	     44.79864709	     71.34478360	     82.73871189	    146.21004396	    -26.71292523	     55.81090384	     78.18647226	     79.49469325
